<?xml version="1.0" encoding="UTF-8" standalone="no"?>
<!DOCTYPE svg PUBLIC "-//W3C//DTD SVG 1.1//EN" "http://www.w3.org/Graphics/SVG/1.1/DTD/svg11.dtd">
<svg width="100%" height="100%" viewBox="0 0 56 108" version="1.1" xmlns="http://www.w3.org/2000/svg" xmlns:xlink="http://www.w3.org/1999/xlink" xml:space="preserve" xmlns:serif="http://www.serif.com/" style="fill-rule:evenodd;clip-rule:evenodd;stroke-linejoin:round;stroke-miterlimit:2;">
    <g transform="matrix(1,0,0,1,-36.136898,-10.133831)">
        <g transform="matrix(0.935395,0,0,0.935395,4.316746,5.146557)">
            <g transform="matrix(0.139589,0,0,0.139589,28.265169,-10.721028)">
                <path d="M281.44,397.667L438.32,397.667C443.326,397.667 448.118,395.908 452.453,393.427C456.789,390.946 461.258,387.831 463.76,383.533C466.262,379.236 468.002,374.36 468,369.399C467.998,364.437 466.266,359.563 463.76,355.268L357.76,172.947C355.258,168.65 352.201,165.534 347.867,163.053C343.532,160.573 337.325,158.813 332.32,158.813C327.315,158.813 322.521,160.573 318.187,163.053C313.852,165.534 310.795,168.65 308.293,172.947L281.44,219.587L227.733,129.13C225.229,124.834 222.176,120.307 217.84,117.827C213.504,115.346 208.713,115 203.707,115C198.701,115 193.909,115.346 189.573,117.827C185.238,120.307 180.771,124.834 178.267,129.13L46.827,355.268C44.321,359.563 44.002,364.437 44,369.399C43.998,374.36 44.325,379.235 46.827,383.533C49.329,387.83 53.798,390.946 58.133,393.427C62.469,395.908 67.26,397.667 72.267,397.667L171.2,397.667C210.401,397.667 238.934,380.082 258.827,346.787L306.88,263.4L332.32,219.587L410.053,352.44L306.88,352.44L281.44,397.667ZM169.787,352.44L100.533,352.44L203.707,174.36L256,263.4L221.361,323.784C208.151,345.387 193.089,352.44 169.787,352.44Z" style="fill:rgb(0,220,130);fill-rule:nonzero;"/>
            </g>
            <g transform="matrix(1,0,0,1,0,1.851986)">
                <g transform="matrix(4.95955,0,0,1,-176.942877,-3.402752)">
                    <path d="M50.57,52.719C50.919,52.719 51.203,54.125 51.203,55.86C51.203,55.861 51.203,55.862 51.203,55.862C51.203,57.597 50.919,59.003 50.57,59.003C48.968,59.003 44.771,59.003 43.17,59.003C42.82,59.003 42.536,57.597 42.536,55.862C42.536,55.862 42.536,55.861 42.536,55.86C42.536,54.125 42.82,52.719 43.17,52.719C44.771,52.719 48.968,52.719 50.57,52.719Z" style="fill:rgb(0,220,130);"/>
                </g>
                <g transform="matrix(2.651824,0,0,1,-78.780804,7.105958)">
                    <path d="M50.018,52.719C50.673,52.719 51.203,54.125 51.203,55.86C51.203,55.861 51.203,55.862 51.203,55.862C51.203,57.597 50.673,59.003 50.018,59.003C48.363,59.003 45.376,59.003 43.721,59.003C43.067,59.003 42.536,57.597 42.536,55.862C42.536,55.862 42.536,55.861 42.536,55.86C42.536,54.125 43.067,52.719 43.721,52.719C45.376,52.719 48.363,52.719 50.018,52.719Z" style="fill:white;"/>
                </g>
                <g transform="matrix(1.483398,0,0,1,-3.535111,7.105958)">
                    <path d="M49.085,52.719C49.647,52.719 50.186,53.05 50.583,53.639C50.98,54.228 51.203,55.027 51.203,55.86C51.203,55.861 51.203,55.862 51.203,55.862C51.203,56.695 50.98,57.494 50.583,58.083C50.186,58.672 49.647,59.003 49.085,59.003C47.738,59.003 46.001,59.003 44.654,59.003C44.092,59.003 43.554,58.672 43.156,58.083C42.759,57.494 42.536,56.695 42.536,55.862C42.536,55.862 42.536,55.861 42.536,55.86C42.536,55.027 42.759,54.228 43.156,53.639C43.554,53.05 44.092,52.719 44.654,52.719C46.001,52.719 47.738,52.719 49.085,52.719Z" style="fill:rgb(0,220,130);"/>
                </g>
                <g transform="matrix(1.432986,0,0,1,-26.936004,17.614667)">
                    <path d="M49.011,52.719C49.592,52.719 50.15,53.05 50.561,53.639C50.972,54.228 51.203,55.027 51.203,55.86C51.203,55.861 51.203,55.862 51.203,55.862C51.203,56.695 50.972,57.494 50.561,58.083C50.15,58.672 49.592,59.003 49.011,59.003C47.7,59.003 46.039,59.003 44.728,59.003C44.147,59.003 43.589,58.672 43.178,58.083C42.767,57.494 42.536,56.695 42.536,55.862C42.536,55.862 42.536,55.861 42.536,55.86C42.536,55.027 42.767,54.228 43.178,53.639C43.589,53.05 44.147,52.719 44.728,52.719C46.039,52.719 47.7,52.719 49.011,52.719Z" style="fill:rgb(0,220,130);"/>
                </g>
                <g transform="matrix(3.230817,0,0,1,-88.426902,17.614667)">
                    <path d="M50.231,52.719C50.488,52.719 50.736,53.05 50.918,53.639C51.1,54.228 51.203,55.027 51.203,55.86C51.203,55.861 51.203,55.862 51.203,55.862C51.203,56.695 51.1,57.494 50.918,58.083C50.736,58.672 50.488,59.003 50.231,59.003C48.563,59.003 45.176,59.003 43.508,59.003C43.251,59.003 43.003,58.672 42.821,58.083C42.639,57.494 42.536,56.695 42.536,55.862C42.536,55.862 42.536,55.861 42.536,55.86C42.536,55.027 42.639,54.228 42.821,53.639C43.003,53.05 43.251,52.719 43.508,52.719C45.176,52.719 48.563,52.719 50.231,52.719Z" style="fill:white;"/>
                </g>
                <g transform="matrix(3.459528,0,0,1,-113.13753,28.123376)">
                    <path d="M50.295,52.719C50.536,52.719 50.767,53.05 50.937,53.639C51.107,54.228 51.203,55.027 51.203,55.86C51.203,55.861 51.203,55.862 51.203,55.862C51.203,56.695 51.107,57.494 50.937,58.083C50.767,58.672 50.536,59.003 50.295,59.003C48.63,59.003 45.109,59.003 43.444,59.003C43.203,59.003 42.972,58.672 42.802,58.083C42.632,57.494 42.536,56.695 42.536,55.862C42.536,55.862 42.536,55.861 42.536,55.86C42.536,55.027 42.632,54.228 42.802,53.639C42.972,53.05 43.203,52.719 43.444,52.719C45.109,52.719 48.63,52.719 50.295,52.719Z" style="fill:rgb(0,220,130);"/>
                </g>
                <g transform="matrix(1.567204,0,0,1,-32.645136,38.632086)">
                    <path d="M49.199,52.719C49.73,52.719 50.24,53.05 50.616,53.639C50.992,54.228 51.203,55.027 51.203,55.86C51.203,55.861 51.203,55.862 51.203,55.862C51.203,56.695 50.992,57.494 50.616,58.083C50.24,58.672 49.73,59.003 49.199,59.003C47.8,59.003 45.94,59.003 44.54,59.003C44.009,59.003 43.499,58.672 43.123,58.083C42.747,57.494 42.536,56.695 42.536,55.862C42.536,55.862 42.536,55.861 42.536,55.86C42.536,55.027 42.747,54.228 43.123,53.639C43.499,53.05 44.009,52.719 44.54,52.719C45.94,52.719 47.8,52.719 49.199,52.719Z" style="fill:white;"/>
                </g>
                <g transform="matrix(2.536437,0,0,1,-73.872701,49.140795)">
                    <path d="M49.964,52.719C50.293,52.719 50.608,53.05 50.84,53.639C51.072,54.228 51.203,55.027 51.203,55.86C51.203,55.861 51.203,55.862 51.203,55.862C51.203,56.695 51.072,57.494 50.84,58.083C50.608,58.672 50.293,59.003 49.964,59.003C48.317,59.003 45.422,59.003 43.775,59.003C43.446,59.003 43.131,58.672 42.899,58.083C42.667,57.494 42.536,56.695 42.536,55.862C42.536,55.862 42.536,55.861 42.536,55.86C42.536,55.027 42.667,54.228 42.899,53.639C43.131,53.05 43.446,52.719 43.775,52.719C45.422,52.719 48.317,52.719 49.964,52.719Z" style="fill:rgb(0,220,130);"/>
                </g>
                <g transform="matrix(4.036459,0,0,1,-137.678048,59.649504)">
                    <path d="M50.425,52.719C50.631,52.719 50.829,53.05 50.975,53.639C51.121,54.228 51.203,55.027 51.203,55.86C51.203,55.861 51.203,55.862 51.203,55.862C51.203,56.695 51.121,57.494 50.975,58.083C50.829,58.672 50.631,59.003 50.425,59.003C48.779,59.003 44.96,59.003 43.314,59.003C43.108,59.003 42.91,58.672 42.764,58.083C42.618,57.494 42.536,56.695 42.536,55.862C42.536,55.862 42.536,55.861 42.536,55.86C42.536,55.027 42.618,54.228 42.764,53.639C42.91,53.05 43.108,52.719 43.314,52.719C44.96,52.719 48.779,52.719 50.425,52.719Z" style="fill:rgb(0,220,130);"/>
                </g>
                <g transform="matrix(-1.567204,0,0,1,159.808341,-3.402752)">
                    <path d="M49.199,52.719C49.73,52.719 50.24,53.05 50.616,53.639C50.992,54.228 51.203,55.027 51.203,55.86C51.203,55.861 51.203,55.862 51.203,55.862C51.203,56.695 50.992,57.494 50.616,58.083C50.24,58.672 49.73,59.003 49.199,59.003C47.8,59.003 45.94,59.003 44.54,59.003C44.009,59.003 43.499,58.672 43.123,58.083C42.747,57.494 42.536,56.695 42.536,55.862C42.536,55.862 42.536,55.861 42.536,55.86C42.536,55.027 42.747,54.228 43.123,53.639C43.499,53.05 44.009,52.719 44.54,52.719C45.94,52.719 47.8,52.719 49.199,52.719Z" style="fill:white;"/>
                </g>
                <g transform="matrix(-2.095786,0,0,1,182.292229,7.105958)">
                    <path d="M49.704,52.719C50.102,52.719 50.483,53.05 50.764,53.639C51.045,54.228 51.203,55.027 51.203,55.86C51.203,55.861 51.203,55.862 51.203,55.862C51.203,56.695 51.045,57.494 50.764,58.083C50.483,58.672 50.102,59.003 49.704,59.003C48.116,59.003 45.623,59.003 44.035,59.003C43.637,59.003 43.256,58.672 42.975,58.083C42.694,57.494 42.536,56.695 42.536,55.862C42.536,55.862 42.536,55.861 42.536,55.86C42.536,55.027 42.694,54.228 42.975,53.639C43.256,53.05 43.637,52.719 44.035,52.719C45.623,52.719 48.116,52.719 49.704,52.719Z" style="fill:rgb(0,220,130);"/>
                </g>
                <g transform="matrix(-1.567204,0,0,1,159.808341,17.614667)">
                    <path d="M49.199,52.719C49.73,52.719 50.24,53.05 50.616,53.639C50.992,54.228 51.203,55.027 51.203,55.86C51.203,55.861 51.203,55.862 51.203,55.862C51.203,56.695 50.992,57.494 50.616,58.083C50.24,58.672 49.73,59.003 49.199,59.003C47.8,59.003 45.94,59.003 44.54,59.003C44.009,59.003 43.499,58.672 43.123,58.083C42.747,57.494 42.536,56.695 42.536,55.862C42.536,55.862 42.536,55.861 42.536,55.86C42.536,55.027 42.747,54.228 43.123,53.639C43.499,53.05 44.009,52.719 44.54,52.719C45.94,52.719 47.8,52.719 49.199,52.719Z" style="fill:rgb(0,220,130);"/>
                </g>
                <g transform="matrix(-3.067226,0,0,1,223.613688,28.123376)">
                    <path d="M50.179,52.719C50.45,52.719 50.711,53.05 50.903,53.639C51.095,54.228 51.203,55.027 51.203,55.86C51.203,55.861 51.203,55.862 51.203,55.862C51.203,56.695 51.095,57.494 50.903,58.083C50.711,58.672 50.45,59.003 50.179,59.003C48.511,59.003 45.228,59.003 43.56,59.003C43.289,59.003 43.028,58.672 42.836,58.083C42.644,57.494 42.536,56.695 42.536,55.862C42.536,55.862 42.536,55.861 42.536,55.86C42.536,55.027 42.644,54.228 42.836,53.639C43.028,53.05 43.289,52.719 43.56,52.719C45.228,52.719 48.511,52.719 50.179,52.719Z" style="fill:rgb(0,220,130);"/>
                </g>
                <g transform="matrix(-3.459528,0,0,1,227.300735,38.632086)">
                    <path d="M50.295,52.719C50.536,52.719 50.767,53.05 50.937,53.639C51.107,54.228 51.203,55.027 51.203,55.86C51.203,55.861 51.203,55.862 51.203,55.862C51.203,56.695 51.107,57.494 50.937,58.083C50.767,58.672 50.536,59.003 50.295,59.003C48.63,59.003 45.109,59.003 43.444,59.003C43.203,59.003 42.972,58.672 42.802,58.083C42.632,57.494 42.536,56.695 42.536,55.862C42.536,55.862 42.536,55.861 42.536,55.86C42.536,55.027 42.632,54.228 42.802,53.639C42.972,53.05 43.203,52.719 43.444,52.719C45.109,52.719 48.63,52.719 50.295,52.719Z" style="fill:rgb(0,220,130);"/>
                </g>
                <g transform="matrix(1.137239,0,0,1,34.334535,38.632086)">
                    <path d="M48.441,52.719C49.173,52.719 49.876,53.05 50.394,53.639C50.912,54.228 51.203,55.027 51.203,55.86C51.203,55.861 51.203,55.862 51.203,55.862C51.203,56.695 50.912,57.494 50.394,58.083C49.876,58.672 49.173,59.003 48.441,59.003C47.437,59.003 46.302,59.003 45.298,59.003C44.566,59.003 43.863,58.672 43.345,58.083C42.827,57.494 42.536,56.695 42.536,55.862C42.536,55.862 42.536,55.861 42.536,55.86C42.536,55.027 42.827,54.228 43.345,53.639C43.863,53.05 44.566,52.719 45.298,52.719C46.302,52.719 47.437,52.719 48.441,52.719Z" style="fill:rgb(0,220,130);"/>
                </g>
                <g transform="matrix(-3.923281,0,0,1,259.446072,49.140795)">
                    <path d="M50.402,52.719C50.615,52.719 50.818,53.05 50.968,53.639C51.118,54.228 51.203,55.027 51.203,55.86C51.203,55.861 51.203,55.862 51.203,55.862C51.203,56.695 51.118,57.494 50.968,58.083C50.818,58.672 50.615,59.003 50.402,59.003C48.752,59.003 44.987,59.003 43.337,59.003C43.125,59.003 42.921,58.672 42.771,58.083C42.621,57.494 42.536,56.695 42.536,55.862C42.536,55.862 42.536,55.861 42.536,55.86C42.536,55.027 42.621,54.228 42.771,53.639C42.921,53.05 43.125,52.719 43.337,52.719C44.987,52.719 48.752,52.719 50.402,52.719Z" style="fill:rgb(0,220,130);"/>
                </g>
                <g transform="matrix(-2.391532,0,0,1,194.8722,59.649504)">
                    <path d="M49.889,52.719C50.615,52.719 51.203,54.125 51.203,55.86C51.203,55.861 51.203,55.862 51.203,55.862C51.203,57.597 50.615,59.003 49.889,59.003C48.256,59.003 45.483,59.003 43.85,59.003C43.124,59.003 42.536,57.597 42.536,55.862C42.536,55.862 42.536,55.861 42.536,55.86C42.536,54.125 43.124,52.719 43.85,52.719C45.483,52.719 48.256,52.719 49.889,52.719Z" style="fill:white;"/>
                </g>
            </g>
        </g>
    </g>
</svg>
