<?xml version="1.0" encoding="UTF-8" standalone="no"?>
<!DOCTYPE svg PUBLIC "-//W3C//DTD SVG 1.1//EN" "http://www.w3.org/Graphics/SVG/1.1/DTD/svg11.dtd">
<svg width="100%" height="100%" viewBox="0 0 65 80" version="1.1" xmlns="http://www.w3.org/2000/svg" xmlns:xlink="http://www.w3.org/1999/xlink" xml:space="preserve" xmlns:serif="http://www.serif.com/" style="fill-rule:evenodd;clip-rule:evenodd;stroke-linecap:round;stroke-linejoin:round;stroke-miterlimit:1.5;">
    <g transform="matrix(1,0,0,1,-36.500974,-10.133831)">
        <g>
            <g transform="matrix(5.538544,0,0,0.935395,-182.588974,4.687032)">
                <path d="M50.672,52.719C50.813,52.719 50.948,53.05 51.047,53.639C51.147,54.228 51.203,55.027 51.203,55.86C51.203,55.861 51.203,55.862 51.203,55.862C51.203,56.695 51.147,57.494 51.047,58.083C50.948,58.672 50.813,59.003 50.672,59.003C49.123,59.003 44.616,59.003 43.067,59.003C42.926,59.003 42.791,58.672 42.692,58.083C42.592,57.494 42.536,56.695 42.536,55.862C42.536,55.862 42.536,55.861 42.536,55.86C42.536,55.027 42.592,54.228 42.692,53.639C42.791,53.05 42.926,52.719 43.067,52.719C44.616,52.719 49.123,52.719 50.672,52.719Z"/>
            </g>
            <g transform="matrix(4.269294,0,0,0.935395,-128.599834,14.516828)">
                <path d="M50.515,52.719C50.697,52.719 50.872,53.05 51.001,53.639C51.13,54.228 51.203,55.027 51.203,55.86C51.203,55.861 51.203,55.862 51.203,55.862C51.203,56.695 51.13,57.494 51.001,58.083C50.872,58.672 50.697,59.003 50.515,59.003C48.893,59.003 44.846,59.003 43.224,59.003C43.042,59.003 42.867,58.672 42.738,58.083C42.609,57.494 42.536,56.695 42.536,55.862C42.536,55.862 42.536,55.861 42.536,55.86C42.536,55.027 42.609,54.228 42.738,53.639C42.867,53.05 43.042,52.719 43.224,52.719C44.846,52.719 48.893,52.719 50.515,52.719Z"/>
            </g>
            <g transform="matrix(5.192385,0,0,0.935395,-167.864663,24.346624)">
                <path d="M50.637,52.719C50.787,52.719 50.931,53.05 51.037,53.639C51.143,54.228 51.203,55.027 51.203,55.86C51.203,55.861 51.203,55.862 51.203,55.862C51.203,56.695 51.143,57.494 51.037,58.083C50.931,58.672 50.787,59.003 50.637,59.003C49.067,59.003 44.672,59.003 43.102,59.003C42.952,59.003 42.808,58.672 42.702,58.083C42.596,57.494 42.536,56.695 42.536,55.862C42.536,55.862 42.536,55.861 42.536,55.86C42.536,55.027 42.596,54.228 42.702,53.639C42.808,53.05 42.952,52.719 43.102,52.719C44.672,52.719 49.067,52.719 50.637,52.719Z"/>
            </g>
            <g transform="matrix(3.346203,0,0,0.935395,-89.335005,34.17642)">
                <path d="M50.325,52.719C50.558,52.719 50.781,53.05 50.946,53.639C51.11,54.228 51.203,55.027 51.203,55.86C51.203,55.861 51.203,55.862 51.203,55.862C51.203,56.695 51.11,57.494 50.946,58.083C50.781,58.672 50.558,59.003 50.325,59.003C48.663,59.003 45.076,59.003 43.414,59.003C43.181,59.003 42.958,58.672 42.793,58.083C42.629,57.494 42.536,56.695 42.536,55.862C42.536,55.862 42.536,55.861 42.536,55.86C42.536,55.027 42.629,54.228 42.793,53.639C42.958,53.05 43.181,52.719 43.414,52.719C45.076,52.719 48.663,52.719 50.325,52.719Z"/>
            </g>
            <g transform="matrix(0.130571,0,0,0.130571,30.755849,-4.88184)">
                <path d="M281.44,397.667L438.32,397.667C443.326,397.667 448.118,395.908 452.453,393.427C456.789,390.946 461.258,387.831 463.76,383.533C466.262,379.236 468.002,374.36 468,369.399C467.998,364.437 466.266,359.563 463.76,355.268L357.76,172.947C355.258,168.65 352.201,165.534 347.867,163.053C343.532,160.573 337.325,158.813 332.32,158.813C327.315,158.813 322.521,160.573 318.187,163.053C313.852,165.534 310.795,168.65 308.293,172.947L281.44,219.587L227.733,129.13C225.229,124.834 222.176,120.307 217.84,117.827C213.504,115.346 208.713,115 203.707,115C198.701,115 193.909,115.346 189.573,117.827C185.238,120.307 180.771,124.834 178.267,129.13L46.827,355.268C44.321,359.563 44.002,364.437 44,369.399C43.998,374.36 44.325,379.235 46.827,383.533C49.329,387.83 53.798,390.946 58.133,393.427C62.469,395.908 67.26,397.667 72.267,397.667L171.2,397.667C210.401,397.667 238.934,380.082 258.827,346.787L306.88,263.4L332.32,219.587L410.053,352.44L306.88,352.44L281.44,397.667ZM169.787,352.44L100.533,352.44L203.707,174.36L256,263.4L221.361,323.784C208.151,345.387 193.089,352.44 169.787,352.44Z" style="fill-rule:nonzero;"/>
            </g>
            <path d="M42,50L42,82.297C42,84.894 44.106,87 46.703,87L50,87" style="fill:none;stroke:black;stroke-width:2.08px;"/>
            <g transform="matrix(0.122497,0,0,1,36.855112,0)">
                <path d="M107.308,57L42,57" style="fill:none;stroke:black;stroke-width:2.92px;"/>
            </g>
            <g transform="matrix(0.160439,0,0,1,35.26155,0)">
                <path d="M91.863,66.769L42,66.769" style="fill:none;stroke:black;stroke-width:2.91px;"/>
            </g>
            <g transform="matrix(0.122497,0,0,1,36.855112,0)">
                <path d="M107.308,77L42,77" style="fill:none;stroke:black;stroke-width:2.92px;"/>
            </g>
        </g>
    </g>
</svg>
