<?xml version="1.0" encoding="UTF-8" standalone="no"?>
<!DOCTYPE svg PUBLIC "-//W3C//DTD SVG 1.1//EN" "http://www.w3.org/Graphics/SVG/1.1/DTD/svg11.dtd">
<svg width="100%" height="100%" viewBox="0 0 16 16" version="1.1" xmlns="http://www.w3.org/2000/svg" xmlns:xlink="http://www.w3.org/1999/xlink" xml:space="preserve" xmlns:serif="http://www.serif.com/" style="fill-rule:evenodd;clip-rule:evenodd;stroke-linecap:round;stroke-linejoin:round;stroke-miterlimit:1.5;">
    <g transform="matrix(0.217058,0,0,0.217058,-6.922812,-2.481705)">
        <g transform="matrix(5.538544,0,0,0.935395,-182.588974,4.687032)">
            <path d="M50.69,52.719C50.826,52.719 50.957,53.039 51.053,53.608C51.149,54.177 51.203,54.949 51.203,55.754C51.203,55.825 51.203,55.897 51.203,55.969C51.203,56.774 51.149,57.545 51.053,58.115C50.957,58.684 50.826,59.003 50.69,59.003C49.152,59.003 44.587,59.003 43.049,59.003C42.913,59.003 42.783,58.684 42.686,58.115C42.59,57.545 42.536,56.774 42.536,55.969C42.536,55.897 42.536,55.825 42.536,55.754C42.536,54.949 42.59,54.177 42.686,53.608C42.783,53.039 42.913,52.719 43.049,52.719C44.587,52.719 49.152,52.719 50.69,52.719Z"/>
        </g>
        <g transform="matrix(4.269294,0,0,0.935395,-128.599834,14.516828)">
            <path d="M50.538,52.719C50.714,52.719 50.883,53.039 51.008,53.608C51.133,54.177 51.203,54.949 51.203,55.754C51.203,55.825 51.203,55.897 51.203,55.969C51.203,56.774 51.133,57.545 51.008,58.115C50.883,58.684 50.714,59.003 50.538,59.003C48.924,59.003 44.815,59.003 43.201,59.003C43.025,59.003 42.856,58.684 42.731,58.115C42.606,57.545 42.536,56.774 42.536,55.969C42.536,55.897 42.536,55.825 42.536,55.754C42.536,54.949 42.606,54.177 42.731,53.608C42.856,53.039 43.025,52.719 43.201,52.719C44.815,52.719 48.924,52.719 50.538,52.719Z"/>
        </g>
        <g transform="matrix(5.192385,0,0,0.935395,-167.864663,24.346624)">
            <path d="M50.656,52.719C50.801,52.719 50.94,53.039 51.043,53.608C51.145,54.177 51.203,54.949 51.203,55.754C51.203,55.825 51.203,55.897 51.203,55.969C51.203,56.774 51.145,57.545 51.043,58.115C50.94,58.684 50.801,59.003 50.656,59.003C49.097,59.003 44.642,59.003 43.083,59.003C42.938,59.003 42.799,58.684 42.696,58.115C42.594,57.545 42.536,56.774 42.536,55.969C42.536,55.897 42.536,55.825 42.536,55.754C42.536,54.949 42.594,54.177 42.696,53.608C42.799,53.039 42.938,52.719 43.083,52.719C44.642,52.719 49.097,52.719 50.656,52.719Z"/>
        </g>
        <g transform="matrix(0.106132,0,0,0.106132,31.831164,4.836735)">
            <path d="M281.44,397.667L438.32,397.667C443.326,397.667 448.118,395.908 452.453,393.427C456.789,390.946 461.258,387.831 463.76,383.533C466.262,379.236 468.002,374.36 468,369.399C467.998,364.437 466.266,359.563 463.76,355.268L357.76,172.947C355.258,168.65 352.201,165.534 347.867,163.053C343.532,160.573 337.325,158.813 332.32,158.813C327.315,158.813 322.521,160.573 318.187,163.053C313.852,165.534 310.795,168.65 308.293,172.947L281.44,219.587L227.733,129.13C225.229,124.834 222.176,120.307 217.84,117.827C213.504,115.346 208.713,115 203.707,115C198.701,115 193.909,115.346 189.573,117.827C185.238,120.307 180.771,124.834 178.267,129.13L46.827,355.268C44.321,359.563 44.002,364.437 44,369.399C43.998,374.36 44.325,379.235 46.827,383.533C49.329,387.83 53.798,390.946 58.133,393.427C62.469,395.908 67.26,397.667 72.267,397.667L171.2,397.667C210.401,397.667 238.934,380.082 258.827,346.787L306.88,263.4L332.32,219.587L410.053,352.44L306.88,352.44L281.44,397.667ZM169.787,352.44L100.533,352.44L203.707,174.36L256,263.4L221.361,323.784C208.151,345.387 193.089,352.44 169.787,352.44Z" style="fill-rule:nonzero;"/>
        </g>
        <g transform="matrix(1,0,0,0.72973,0,13.513514)">
            <path d="M42,50L42,76.04C42,82.093 45.581,87 49.998,87C49.999,87 50,87 50,87" style="fill:none;stroke:black;stroke-width:4.39px;"/>
        </g>
        <g transform="matrix(0.122497,0,0,1,36.855112,0)">
            <path d="M107.308,55.08C115.956,55.08 122.978,55.941 122.978,57C122.978,58.059 115.956,58.92 107.308,58.92L42,58.92C33.351,58.92 26.329,58.059 26.329,57C26.329,55.941 33.351,55.08 42,55.08L107.308,55.08Z"/>
        </g>
        <g transform="matrix(0.160439,0,0,1,35.26155,0)">
            <path d="M91.863,64.849C98.467,64.849 103.828,65.71 103.828,66.769C103.828,67.828 98.467,68.689 91.863,68.689L42,68.689C35.396,68.689 30.035,67.828 30.035,66.769C30.035,65.71 35.396,64.849 42,64.849L91.863,64.849Z"/>
        </g>
    </g>
</svg>
